<svg xmlns="http://www.w3.org/2000/svg" xmlns:xlink="http://www.w3.org/1999/xlink" width="560" height="351" viewBox="0 0 560 351">
  <defs>
    <clipPath id="clip-path">
      <rect id="사각형_29717" data-name="사각형 29717" width="560" height="351" transform="translate(135 129)" fill="#fff" stroke="#707070" stroke-width="1"/>
    </clipPath>
    <clipPath id="clip-path-2">
      <rect id="사각형_18777" data-name="사각형 18777" width="560.105" height="562.389" fill="#153972"/>
    </clipPath>
  </defs>
  <g id="마스크_그룹_25482" data-name="마스크 그룹 25482" transform="translate(-135 -129)" clip-path="url(#clip-path)">
    <g id="그룹_35717" data-name="그룹 35717" transform="translate(135 128.805)" opacity="0.104">
      <g id="그룹_29086" data-name="그룹 29086" clip-path="url(#clip-path-2)">
        <path id="패스_11434" data-name="패스 11434" d="M61.888,147.4c6.139,28.428,22.668,64.087,47.2,96.036l95.558-98.53,96.216,97.6c24.7-32.038,40.9-66.541,47.055-95.064a738.711,738.711,0,0,0-286.03-.04" transform="translate(75.166 162.079)" fill="#153972"/>
        <path id="패스_11435" data-name="패스 11435" d="M132.341,191.765a5.992,5.992,0,0,0-3.193,5.162,4.071,4.071,0,0,0,4.088,4.132,3.789,3.789,0,0,0,3.887-4c0-2.578-2.175-3.893-4.781-5.3" transform="translate(156.857 232.909)" fill="#153972"/>
        <path id="패스_11436" data-name="패스 11436" d="M133.291,194.221a4.178,4.178,0,0,0,2.562-3.975,2.836,2.836,0,0,0-2.965-3.047,2.983,2.983,0,0,0-3.322,3.034c0,1.47,1,2.518,3.725,3.989" transform="translate(157.365 227.362)" fill="#153972"/>
        <path id="패스_11437" data-name="패스 11437" d="M123.624,194.221a4.208,4.208,0,0,0,2.56-3.975,2.844,2.844,0,0,0-2.95-3.047,2.981,2.981,0,0,0-3.328,3.034c0,1.47.99,2.518,3.718,3.989" transform="translate(145.632 227.362)" fill="#153972"/>
        <path id="패스_11438" data-name="패스 11438" d="M122.717,191.765a5.959,5.959,0,0,0-3.238,5.162,4.061,4.061,0,0,0,4.068,4.132,3.8,3.8,0,0,0,3.935-4c0-2.578-2.21-3.893-4.766-5.3" transform="translate(145.114 232.909)" fill="#153972"/>
        <path id="패스_11439" data-name="패스 11439" d="M166.2,160.8,93.551,231.725c18.81,17.521,42.639,33.975,72.857,48.113h.119c30.051-14.062,53.8-30.426,72.562-47.843Zm-24.369,79.615-3.8-.064h-2.83l-3.816.064c-.793,0-.943-.358-.943-.642a.676.676,0,0,1,.676-.733l2.389-.2c.66-.157.786-.294.868-1.178l.124-6.518v-4.639l-.027-3.789a4.519,4.519,0,0,0-.044-.6,17.282,17.282,0,0,0-2.456.919s-.93.385-.957.385l-.573.2a.7.7,0,0,1-.64-.735.834.834,0,0,1,.523-.766c.2-.136,5.964-3.694,7.1-4.473l1.081-.455c.2,0,.74.071.74,1l-.018.419-.129,7.191v5.352l.115,6.518c.1.9.237,1.054.9,1.178l1.955.2a.683.683,0,0,1,.689.733c0,.284-.166.642-.926.642m12.984.428c-4.989,0-8.218-2.409-8.218-6.141,0-2.708,1.951-5.074,5.246-6.524-1.891-1-4.03-2.589-4.03-5.3,0-2.277,2.057-5.694,7.8-5.694,4.095,0,6.785,1.912,6.785,4.883,0,3.116-2.64,4.735-4.064,5.4,2.122,1.109,5.131,2.976,5.131,6.478,0,3.426-2.959,6.9-8.646,6.9m21.4,0c-4.992,0-8.2-2.409-8.2-6.141,0-2.708,1.949-5.074,5.226-6.524-1.909-1-4.031-2.589-4.031-5.3,0-2.277,2.068-5.694,7.769-5.694,4.121,0,6.785,1.912,6.785,4.883,0,3.116-2.62,4.735-4.05,5.4,2.128,1.109,5.149,2.976,5.149,6.478,0,3.426-2.989,6.9-8.65,6.9m16.875,0a7.441,7.441,0,0,1-3.074-.6H190a1.347,1.347,0,0,1-.855-1.506v-.4l.133-3.326c.04-.215.193-.89.8-.89.263,0,.7.138.7.919,0,2.356,1.214,3.519,3.774,3.519,2.135,0,4.648-1.282,4.648-4.912,0-4.564-5.355-6.249-7.459-6.506-.862-.139-.946-.709-.926-1.034l.7-7.693c.064-.271.213-.742,1.036-.742h7.565l2.038-.153.352-.075c.749,0,.749.7.749,1l-.447,3.783a.733.733,0,0,1-.749.689.708.708,0,0,1-.711-.791c0-.578,0-1.189-2.265-1.189h-5.24c-.053.543-.261,2.294-.348,2.823,5.01.85,10.2,3.457,10.2,8.449,0,4.152-3.3,8.632-10.614,8.632" transform="translate(113.623 195.302)" fill="#153972"/>
        <path id="패스_11440" data-name="패스 11440" d="M175.75,234.443a6.771,6.771,0,0,0-5.866-12.191,6.77,6.77,0,0,0,5.866,12.191" transform="translate(201.929 269.209)" fill="#153972"/>
        <path id="패스_11441" data-name="패스 11441" d="M42.593,190.445c-3.076,2.7-3.588,7.226-1.083,10.085,2.494,2.879,7.056,2.989,10.152.317a6.921,6.921,0,1,0-9.069-10.4" transform="translate(48.481 228.965)" fill="#153972"/>
        <path id="패스_11442" data-name="패스 11442" d="M36.455,88.315C30.638,86.45,25.1,86.687,20.823,88.9a13.6,13.6,0,0,0-6.8,8.076c-1.406,4.5-1.785,12.616,11.544,16.851,10.82,3.4,20.345-.4,23.162-9.257a10.792,10.792,0,0,0-.631-8.145c-1.829-3.51-5.74-6.245-11.644-8.11" transform="translate(16.225 105.742)" fill="#153972"/>
        <path id="패스_11443" data-name="패스 11443" d="M204.576,57.13c1.437,1.457,1.993,1.752,3.074,1.911,1.3.208,4.06.044,7.388-3.3,2.17-2.168,3.268-4.451,3.268-6.792a7.564,7.564,0,0,0-2.128-5.149,17.193,17.193,0,0,0-2.049-1.754c-.148-.071-.173-.071-.363.091L202.455,53.529c-.352.33-.352.374-.27.529a12.787,12.787,0,0,0,2.391,3.072" transform="translate(245.51 51.013)" fill="#153972"/>
        <path id="패스_11444" data-name="패스 11444" d="M47.925,197.5a6.871,6.871,0,0,1-1.136.884c2.139,2.462,4.708,5.423,4.708,5.423l3.032-2.629s-2.764-3.149-4.839-5.554a14.409,14.409,0,0,1-1.765,1.876" transform="translate(56.828 237.599)" fill="#153972"/>
        <path id="패스_11445" data-name="패스 11445" d="M280.037,0C125.377,0,0,125.92,0,281.18c0,155.3,125.377,281.209,280.037,281.209S560.105,436.482,560.105,281.18C560.105,125.92,434.7,0,280.037,0M512.149,161.193l-.587-1.67c-.376-.777-.286-1.3.264-1.572.791-.388,1.258.658,1.515,1.141l2.881,6.243,1.2,2.288,1.756,3.45c.153.334.682,1.364-.1,1.727-.543.27-1.041.024-1.386-.715l-.8-1.309c-.66-.91-1.386-.988-3.06-.29-1.53.633-2.839,1.278-10.087,4.81,0,0-8.362,4.061-8.44,4.1-4.633,2.274-8.26,4.046-10.178,5.173-1.149.749-1.641,1.318-1.225,2.542l1.005,2.478.157,1.065-.4.454-.633.038-.857-.932-2.429-5.262-1.008-2.2-1.158-2.23-1.9-3.692c-.525-1.078-.213-1.539.19-1.7l.593-.082.751.8.957,1.541c.458.607,1.105.633,2.549.073,2.075-.709,5.8-2.489,10.442-4.75l8.355-4.077,10.008-4.974c1.754-1.01,1.8-1.767,1.634-2.474m-35.882-16.341.177-3.1c.405-7.093,2.241-11.23,6.028-13.883,5.051-3.481,11.52-1.65,15.723,4.478a24.987,24.987,0,0,1,3.293,6.365,1.182,1.182,0,0,1-.244,1.488l-.737.438-4.54,2.979c-.649.43-1.687,1.143-2.277.326-.23-.352-.35-.926.589-1.55a6.226,6.226,0,0,0,1.942-2.928,6.341,6.341,0,0,0-1.118-5.829,6.082,6.082,0,0,0-3.871-2.786,4.563,4.563,0,0,0-3.561.846c-1.719,1.171-2.618,2.824-2.877,8.6l-.1,1.823c-.427,8.24-2.075,12.176-6.318,15.105a11.088,11.088,0,0,1-10.78,1.2,15.615,15.615,0,0,1-6.746-5.815,18.346,18.346,0,0,1-3.324-7.281,2.656,2.656,0,0,1-.058-.64c0-.647.308-1.056,1.143-1.632,0,0,5.707-3.652,5.846-3.734.423-.255,1.546-.93,2.077-.142l.137.687-.693.868a9.267,9.267,0,0,0-1.827,1.816c-2.863,3.57-1.311,6.978-.12,8.739,2.489,3.552,6.163,3.8,8.4,2.3,2.1-1.479,3.519-3.5,3.827-8.732M445.9,96.548l7.778-7.937c1.174-1.322,1.276-2,.465-3.251l-1.28-1.462-.56-.985.264-.576.567-.275c.4,0,.74.3,1.183.735l3.592,3.718,1.417,1.5,5.4,5.136c2.274,2.305,4.717,5.107,5.4,8.708a9.57,9.57,0,0,1-2.686,8.037c-3.076,3.052-7.06,4.166-13.183,3.6-.109.6-.3,2.547-.3,2.547-.715,6.181-1.289,11.048-1.353,14.913v.321c0,3.838,1.116,5.461,1.559,6.179l.886,1.092a1.055,1.055,0,0,1,.392.773.921.921,0,0,1-.23.582l-.6.257-1.07-.616L449.987,136c-2.122-2.084-2.941-3.266-3.413-4.881a11.542,11.542,0,0,1-.461-3.393,57.041,57.041,0,0,1,.793-7.363l.788-4.628.644-4.225v-.08a.674.674,0,0,0-.283-.5s-2.912-3.06-3.169-3.3c-.013,0-.516.489-.516.489-3.424,3.444-6.378,6.427-7.777,8.152a3.533,3.533,0,0,0-.99,1.978,1.611,1.611,0,0,0,.434,1.032l1.621,1.913.405.793-.261.558-.571.266-1.138-.613-4.183-4.38-1.2-1.225-1.528-1.42-3.131-3.014-.607-1.138.221-.567.536-.255.954.531s1.451,1.123,1.451,1.147c.6.432,1.375,0,2.626-.95,1.712-1.391,4.677-4.338,8.1-7.753,0,0,6.528-6.588,6.568-6.624M410.521,69.993c4.511-6.726,5.266-7.917,6.11-9.33.9-1.519.888-2.188-.146-3.269l-1.528-1.18-.742-.9.173-.589c.481-.782,1.349-.148,1.8.135L420.2,57.7l2.179,1.535c1.052.673,10.087,6.8,10.944,7.312,0,0,2.026.966,2.053.966l.246.073.625.281c.184.115.567.461.159,1.154l-.425.427s-1.88,2.206-1.911,2.206l-.618.833s-1.546,1.949-1.572,1.949a.957.957,0,0,1-1.3.233l-.372-.507.27-.948a5.352,5.352,0,0,0,.726-1.614,1.726,1.726,0,0,0,.084-.562c0-.649-.323-1.313-1.82-2.578-.6-.534-4.921-3.576-5.975-4.321a.2.2,0,0,1-.069.091L415.98,75.3s-.051.077-.1.153c3.771,2.542,6.329,4.192,6.967,4.56a3.526,3.526,0,0,0,2.347.709c.536-.146.941-.246,1.313,0l.376.494-.153.618-.39.427s-2.155,2.584-2.168,2.584l-2.122,2.777c-.241.361-.8,1.187-1.526.7a.841.841,0,0,1-.308-1.216l.275-.443s.609-1.225.589-1.214a1.9,1.9,0,0,0,.173-.735,2.949,2.949,0,0,0-1.34-2.137c-.711-.631-4.839-3.464-5.984-4.23a.2.2,0,0,1-.075.073l-2.314,3.455-1.169,1.749-3.4,5.049a5.318,5.318,0,0,0-1.1,2.593c0,1.185,1.067,2.226,3.745,4.026a13.062,13.062,0,0,0,4.312,2.19c1.331.221,2.341-.281,3.782-1.787.308-.312.815-.833,1.466-.4l.35.523L419.1,96.9a43.4,43.4,0,0,1-3.88,4.569c-1.333,1.145-1.986.733-3.687-.43l-8.67-6.11-3.284-2.3L397.506,91.3,394,89.041l-.844-.988.115-.629.5-.334,1.034.334s1.617.815,1.617.846c.7.279,1.366-.255,2.409-1.439,1.47-1.672,3.765-5.131,6.473-9.12ZM361.819,30l.419-.425c.394-.162.859,0,1.579.308l4.2,1.876,2.777,1.278,2.04.777,4,1.612c.647.29,1.043.56,1.127.906V36.9c-.084.312-.48.764-1.484.332a3.529,3.529,0,0,0-1.732-.407c-.312.04-.465.2-.638.549a12.957,12.957,0,0,0-.447,4.053s-.939,23.341-1.016,24.832c.955-1.012,7.164-7.264,7.164-7.264l12.127-12.264a6.114,6.114,0,0,0,1.125-1.473.585.585,0,0,0,.064-.283.487.487,0,0,0-.186-.425l-1.694-.994c-.268-.115-.981-.423-.981-.992a.963.963,0,0,1,.069-.319c.4-.87,1.448-.4,2.146-.148l3.968,1.856,1.061.5,1.727.651,2.912,1.169c.319.137,1.386.591,1.023,1.417l-.454.458-1.056-.126a4.077,4.077,0,0,0-2.369-.43c-.715.168-1.745.647-4.352,3.111l-6.159,5.793-5.277,4.9L370.728,73.415l-.556.494c-2.153,1.982-2.806,2.624-3.681,2.234-.921-.39-.91-1.322-.868-4.157l.472-34.886c.031-3.038-.549-3.8-1.929-4.912l-1.738-.952-.658-.591ZM323.77,60.389l1.136-.062,1.789.248c.742.011,1.189-.467,1.692-1.953.735-2.051,1.763-6.254,2.923-11.075l2.133-9.02L335.915,27.6c.4-1.98-.164-2.478-.811-2.817l-1.692-.631-.948-.5-.062-.7.33-.447c.281-.173.7-.173,1.5,0l6.619,1.765,2.538.54,3.776.811c.383.071,1.495.359,1.3,1.176l-.363.571L347,27.421l-1.488-.2c-1.152-.058-1.668.441-2.181,2.161l-2.719,10.842-2.128,9.031c-1.167,4.823-2.133,9.022-2.465,11.243-.193,1.373-.04,2.095,1.207,2.591l2.507.8.923.565.086.569c-.055.188-.317.9-1.594.565L333.5,64.136l-2.308-.593-2.429-.527-4.108-.873-1.116-.627-.111-.667ZM267.233,55.12l2.257-.166c1.047-.248,1.349-1.389,1.583-6.066l1.776-31.2c.071-1.01.21-1.654.563-1.953l.651-.213c.638.009,1.112.534,1.714,1.313l.476.538c.084.066,7.977,9.356,15.65,17.6l7.472,8.446s2.471,2.786,3.149,3.563c.075-4.059.439-22.918.439-22.918v-.7c0-2.615-.425-3.286-1.329-3.738A8.833,8.833,0,0,0,299,19.256c-.817-.047-1.233-.343-1.233-.9V18.3l.25-.523c.326-.312.784-.337,1.566-.312l4.549.312,1.838.109h.981l4.2.064c.594.018,1.648.075,1.6.981l-.241.551-1.172.29-1.455.086c-1.105.259-1.623.895-1.82,3.993L306.094,57.1c-.049.64-.109,2.084-1.194,2.044a3.568,3.568,0,0,1-2.051-1.375L294.658,48.9l-6.717-7.286c-4.383-4.752-8.785-10.01-10.907-12.548,0,0-.25-.3-.538-.609-.038,1.756-.332,21.222-.332,21.222v.554c0,3.9.717,4.721,1.335,4.974a8.955,8.955,0,0,0,2.6.452l1.085.348.2.565c-.051.937-1.22.875-1.668.861l-5.074-.332L273.15,57h-.844l-4.843-.091a1.867,1.867,0,0,1-1.324-.363l-.2-.656c.013-.385.224-.811,1.3-.773M206.946,26.36a1.951,1.951,0,0,1,1.258-.613l4.857-.833,2.728-.467,2.613-.611,3.732-.824c.531-.078,1.548-.306,1.725.594.1.4-.051.915-1.061,1.1l-1.366.445c-1.118.434-1.349,1.1-1.118,2.9,0,0,2.033,10.818,2.071,10.962l1.424,7.259c1.6,8.132,4.013,10.417,6.351,11.651a9.289,9.289,0,0,0,6.622.788,10.03,10.03,0,0,0,6.331-4c2.121-3.2,1.477-7.656.388-13.137L242.208,35.1l-2.241-10.951c-.427-1.679-.983-2.17-2.407-2.17l-1.778.208-1.143-.1-.359-.534.117-.622a1.97,1.97,0,0,1,1.211-.554l5.782-1.005.2-.044L243.067,19l4.434-.974.946-.075a.812.812,0,0,1,.715.671c.173.861-.837,1.052-1.183,1.152,0,0-1.38.4-1.38.425-1.085.427-1.366,1.074-1.085,2.855l2.071,10.978,1.065,5.559c1.2,5.986,1.772,12.207-1.933,16.9a16.275,16.275,0,0,1-10.264,6c-2.312.461-7.744,1.535-12.523-1.34-3.822-2.3-6.185-6.44-7.49-13.1l-1.5-7.569c-1.566-7.888-1.847-9.292-2.268-10.933-.454-1.705-.959-2.181-2.409-2.181l-1.955.226-1.136-.1-.341-.523ZM151.332,49.9l6.15-3.045,2.257-1.278,3.371-1.88c.363-.146,1.362-.68,1.767.058a1.061,1.061,0,0,1,.133.456c0,.392-.283.715-.826,1l-1.247.8a1.651,1.651,0,0,0-.733,1.318,4.677,4.677,0,0,0,.5,1.765c.724,1.552,1.389,2.835,5.1,9.937,0,0,4.329,8.229,4.383,8.36,2.378,4.529,4.236,8.112,5.459,9.981.76,1.121,1.36,1.619,2.58,1.167l2.427-1.039,1.065-.217.447.363c.122.186.352.892-.828,1.5l-5.155,2.6L176,82.827l-2.168,1.2-3.672,2.046c-1.074.554-1.532.2-1.734-.166-.188-.348-.226-.866.715-1.344l1.51-1.036c.578-.427.578-1.087,0-2.558-.788-2.057-2.666-5.674-5.076-10.262l-4.334-8.236-5.251-9.848c-1.041-1.725-1.8-1.789-2.516-1.583l-1.665.678c-.755.368-1.271.288-1.563-.286-.405-.737.611-1.28,1.09-1.526M112.364,76.152l4.017-2.872s2.155-1.532,2.2-1.568c0,0,10.517-7.875,10.486-7.859l1.6-1.566.195-.25.434-.485.5-.146.629.43.277.476,1.451,2.549.574.908s1.3,2.055,1.3,2.1a.911.911,0,0,1-.184,1.278c-.334.264-.855.372-1.426-.412a5.326,5.326,0,0,0-1.284-1.2c-.7-.465-1.342-.673-3.5.613-.74.39-5.031,3.455-6.092,4.212.064.015.066.1.066.1l7.988,10.721a.735.735,0,0,0,.091.113c.022-.018.022,0,.051-.018,4.739-3.526,6.181-4.7,6.579-5.043.85-.742,1.371-1.338,1.424-1.969.055-.589.073-1.01.43-1.269l.593-.164.547.392.281.452s1.694,2.89,1.732,2.9l1.891,2.932.469,1.158-.317.536-.686.159s-.587-.326-.565-.326l-.317-.37s-.937-.99-.928-.959c-.6-.483-1.424-.861-3.131.122-.8.478-4.733,3.337-5.957,4.276a.465.465,0,0,1,.047.091l2.5,3.351L137.6,91.3l3.6,4.786c2.037,2.584,2.886,2.843,7.118-.31a13.989,13.989,0,0,0,3.495-3.351c.633-1.16.512-2.272-.43-4.185-.213-.37-.518-1.021.111-1.486l.6-.146.888.744a36.443,36.443,0,0,1,3.021,5.231c.651,1.632.027,2.075-1.608,3.286l-8.654,6.2-3.271,2.3-1.924,1.473-3.309,2.591-1.2.478-.569-.361c-.233-.31-.321-.8.527-1.426l1.338-1.218c.5-.563.177-1.4-.587-2.786-1.063-1.889-3.543-5.215-6.433-9.128l-5.59-7.439c-4.779-6.455-5.629-7.611-6.726-8.9-1.143-1.344-1.8-1.555-3.131-.937l-1.656,1.036-1.07.432-.518-.361-.177-.591c.062-.39.394-.7.912-1.083M89.552,96.484a25.111,25.111,0,0,1,5.556-4.513,1.133,1.133,0,0,1,1.486-.058l.607.651,3.853,3.882c.706.664.981,1.09,1.014,1.5l-.275.587-.6.283-1.036-.536a6.892,6.892,0,0,0-10.637,5.364,4.673,4.673,0,0,0,1.526,3.34c1.5,1.4,3.322,1.958,9,1.03l1.816-.3c8.158-1.256,12.366-.438,16.091,3.131a11.078,11.078,0,0,1,3.561,8.088,12.269,12.269,0,0,1-.2,2.188,15.519,15.519,0,0,1-4.305,7.811,18.481,18.481,0,0,1-6.447,4.732c-1.019.423-1.506.3-2.458-.62,0,0-4.735-4.834-4.832-4.95-.332-.37-1.207-1.3-.569-1.986.277-.321.824-.54,1.634.206a9.735,9.735,0,0,0,2.157,1.451c4.075,2.075,7.122-.213,8.553-1.718a6.7,6.7,0,0,0,2.122-4.95,5.112,5.112,0,0,0-1.566-3.712c-1.882-1.763-4.172-2.759-9.345-1.96l-3.034.438c-7.049,1.061-11.454.157-14.822-3.056a9.5,9.5,0,0,1-3.067-6.734c-.071-3.247,1.422-6.63,4.214-9.589M45.56,155.666c.341-.558,1.041-.671,1.989-.87l.713-.113c.111-.022,12.045-2.385,23-5.029l11.04-2.392s3.639-.784,4.642-1.023c-3.492-2.068-19.754-11.591-19.754-11.591-2.75-1.634-3.678-1.617-4.538-.983a7.9,7.9,0,0,0-1.619,2.095c-.438.7-.921.908-1.435.591l-.341-.476a2.34,2.34,0,0,1,.52-1.526l2.471-3.765,1.021-1.559.494-.9,2.086-3.614c.3-.483.864-1.4,1.617-.93a.813.813,0,0,1,.4.687,2,2,0,0,1-.359.979l-.651,1.307a3.318,3.318,0,0,0-.082.6c0,.819.625,1.617,2.7,2.954L97.52,148.094c.826.5,1.2.872,1.3,1.3l-.137.713a3.341,3.341,0,0,1-2.175,1.1l-11.753,2.824-9.642,2.3c-6.272,1.506-13.033,2.788-16.264,3.395,0,0-.405.051-.806.14,1.537.87,18.361,10.683,18.361,10.683,3.811,2.195,4.923,1.964,5.47,1.537a7.251,7.251,0,0,0,1.661-2.035l.839-.78.567.115c.813.494.21,1.5-.053,1.882l-2.781,4.245-.766,1.234-.445.753-2.423,4.2a1.834,1.834,0,0,1-1,.939l-.655-.1-.326-.463.292-1.059.963-2.04a2.778,2.778,0,0,0,.051-.368c0-.877-1.072-1.772-4.575-4.015L46.862,157.785c-.43-.281-1.428-.892-1.428-1.617a1.033,1.033,0,0,1,.126-.5m4.4,198.318a8.29,8.29,0,1,1,8.287-8.294,8.276,8.276,0,0,1-8.287,8.294m7.815-97.545-.3,2.421-.177,2.682-.266,3.924a2,2,0,0,1-.474,1.3l-.629.168-.512-.25-.221-1.1-.042-1.774c-.066-.95-1.324-1.338-2.385-1.508,0,0-5.133-.644-5.2-.644l-4.3-.441a11.228,11.228,0,0,0-5.483.678c-.8.261-13,6.221-15.927,7.8a12.552,12.552,0,0,0-4.037,3.127A5.019,5.019,0,0,0,17,274.771c-.124,1.1-.777,1.14-1,1.1-.255,0-.89-.224-.766-1.513l.3-2.409.483-4.183.133-1.8.257-3.833.41-.974L17.4,261c.62.053.7.624.8,1.3,0,0,.047.257.047.277a.54.54,0,0,0,.483.458,5.27,5.27,0,0,0,1.694-.412c1.291-.5,10.187-4.527,14.41-6.5,0,0,.786-.332,1.382-.627-1.2-.76-3.55-2.412-6.132-4.181-3-2.035-6.117-4.216-6.889-4.653a6.379,6.379,0,0,0-2.48-.921.858.858,0,0,0-1,.68c-.157.538-.376,1.253-1.041,1.18-.9-.042-.8-1.032-.773-1.38l.622-4.941.368-5.634.447-1.118.527-.164c.244.04.948.182.828,1.5a5.484,5.484,0,0,0,.39,2.17,7.371,7.371,0,0,0,2.208,2.948,166.669,166.669,0,0,0,15.668,11.536,11.933,11.933,0,0,0,5.023,1.238l4.29.423,5.233.317c1.65.071,2.425-.4,2.684-1.546l.456-2.547c.093-1.127.72-1.194.954-1.176l.589.257a2.092,2.092,0,0,1,.21,1.366ZM40.923,227.82a21.484,21.484,0,0,1-12.559-10.355c-2.56-4.919-2.886-10.9-.884-17.207,2.06-6.524,5.733-11.305,10.57-13.806,4.453-2.323,9.72-2.618,15.254-.844a22.211,22.211,0,0,1,13.232,10.679c2.646,5.12,3,11.075,1.036,17.2-4.465,14.244-16.95,17.4-26.65,14.335M90.708,467.4c-.312-.361-22.974-26.369-23.29-26.767.348-.266,8.263-7.155,8.263-7.155,1.169-1.032,1.738-2.64,1.183-3.273H76.85c.215-.19.569-.509.771-.7.312.407,5.993,6.9,5.993,6.9-.363.308-6.971,6.063-6.971,6.063L95.08,463.606c-.328.264-4.022,3.5-4.372,3.8m9.071-8.681c-.3-.321-4.582-5.213-4.885-5.585.37-.328,9.069-7.937,9.069-7.937s-4.128-4.766-6.249-7.182a14.133,14.133,0,0,1-11.748-5c-5.04-5.751-4.823-14.271.476-18.877,5.335-4.637,13.786-3.749,18.828,2.031a14.489,14.489,0,0,1,3.577,10.913c1.267,1.464,6.872,7.886,6.872,7.886l1.324-1.163c1.171-1.061,1.754-2.631,1.2-3.282h-.027c.228-.179.563-.487.78-.644.314.334,5.694,6.484,5.964,6.867-.339.3-24.8,21.647-25.177,21.968m60.453,37.174-.124-.255-.224.151c-7.087,3.971-12.282,4.62-12.344,4.62h-.02c-.142-.341-1.568-3.975-1.763-4.414,15.7-5.162,20.932-16.574,21.029-16.8v-.011c1.577-3.4-.23-4.828-.339-4.885.109-.274.323-.689.441-.919.432.182,9.323,4.263,9.744,4.48a37.713,37.713,0,0,1-11.7,14.651l-.155.115.224.461a58.685,58.685,0,0,1,5.492,13.259c-.308.2-5.435,3.131-6.079,3.457-1.526-8.486-3.109-11.757-4.179-13.905m6.294,27.018c.21-.438,11.653-25.33,11.653-25.33s-6.626-3.029-7.062-3.233c.186-.427,2.226-4.837,2.394-5.237.454.164,7.089,3.244,7.089,3.244l3.59-7.82c.627-1.435.523-3.127-.275-3.479h-.007c.12-.266.314-.664.454-.941.421.188,7.467,3.446,7.467,3.446l.013.027c-.217.434-19.147,41.618-19.349,42.11-.414-.217-5.547-2.582-5.968-2.786m15.491,7.142c-.425-.157-6.327-2.925-6.752-3.092.221-.485,19.167-41.656,19.335-42.114.45.2,6.723,3.109,6.723,3.109h.044c-.2.45-19.16,41.612-19.351,42.1m118.826,17.6h-7.45V519.767h-3.337v27.883h-6.918V538.5H257.949V506.54c0-1.566-.833-3.027-1.688-3.027v-1.023h20.912v5.758H265.348v24.464h17.79V505.386c0-1.568-.83-3-1.694-3v-1.068h8.612v12.663h3.337V501.313h7.45Zm62.012-44.42a10.944,10.944,0,0,1,0-9.2c-2.607,1.225-4.391,2.095-4.535,2.135-.193-.374-2.288-4.755-2.487-5.191.454-.215,10-4.772,10-4.772l-.155-.275c-.722-1.233-1.918-1.993-2.562-1.663v.013c-.166-.255-.35-.675-.474-.919.447-.217,8.207-3.935,8.207-3.935.2.39,1.732,3.541,1.732,3.541s8.894-4.332,9.354-4.516c.19.419,2.281,4.806,2.478,5.215-.109.078-2.1,1.03-4.992,2.392a11.072,11.072,0,0,1,7.222,5.776c2.773,5.791-.3,13.068-6.85,16.219s-14.151.99-16.939-4.819m41.961-7.957c-.414.2-6.289,3.027-6.695,3.215-.219-.427-9.771-20.294-9.771-20.294-.644-1.424-2.009-2.4-2.773-2.006h-.027c-.135-.263-.359-.664-.467-.948.434-.19,7.791-3.712,8.249-3.933.193.461,5.592,11.68,5.592,11.68s6.121-2.979,6.582-3.131c.2.359,2.046,4.254,2.241,4.679-.427.188-6.593,3.1-6.593,3.1s3.448,7.222,3.661,7.634m1.847,21.018c-.213-.423-4.318-8.987-4.318-8.987s-27.542,13.221-27.99,13.4c-.21-.4-2.319-4.792-2.542-5.2.5-.215,34.264-16.419,34.711-16.64.228.412,6.613,13.792,6.847,14.217-.427.195-6.278,3-6.708,3.218M280.843,485.86C168,485.86,76.5,394,76.5,280.715,76.5,167.392,168,75.572,280.843,75.572c112.863,0,204.35,91.82,204.35,205.143,0,113.29-91.488,205.145-204.35,205.145M469.98,465.633l-4.462-3.7c.348-.348,5.313-6.411,5.313-6.411l-9.394-7.8c-1.207-.986-2.861-1.293-3.417-.631a7.811,7.811,0,0,1-.8-.662c.319-.365,4.97-5.993,5.277-6.354.39.31,12.537,10.406,12.537,10.406l2.427-2.917s-12.185-10.107-12.519-10.415c.272-.323,4.205-5.078,4.515-5.457.357.341,12.561,10.428,12.561,10.428s1.6-1.969,3.6-4.407c-5.368-4.469-24.066-19.964-24.066-19.964s-18.2,21.955-18.5,22.325c-.346-.279-4.09-3.4-4.462-3.665.334-.423,23.271-28.052,23.271-28.052h.022c.31.268,22.575,18.733,28.51,23.656,1.594-1.936,2.773-3.324,2.861-3.5.345.312,4.1,3.45,4.46,3.7-.345.372-27.423,33.017-27.731,33.418m26.588-243.415c0,.126.013.248.013.394l.562,2.567a2.137,2.137,0,0,1,.1.607.8.8,0,0,1-.574.857c-.19.06-.915.139-1.311-1.112l-1.519-5.618-.658-2.387-.735-2.336-1.28-3.986c-.35-1.194.066-1.561.465-1.668l.6.051.589.908.735,1.681c.3.644,1.081.751,2.759.419,2.186-.35,6.2-1.539,10.811-2.888,0,0,19.555-5.72,20.341-5.982-.208-.737-2.29-7.067-2.29-7.067-.963-2.974-1.539-3.88-2.6-4.2l-1.876-.352c-.264,0-1.023.033-1.2-.644-.266-.89.649-1.149.941-1.247.9-.237,5.913-.651,6.245-.651.523-.013,1.36-.078,1.563.642l.011.755.027,1.628,1.216,5.1,5.9,20.077a20.509,20.509,0,0,0,1.674,4.141l.263.556-.066.567c-.164.352-.6.483-1.163.678,0,0-5.928,1.579-5.966,1.579-.33.075-1.218.241-1.433-.5a.93.93,0,0,1-.051-.332c0-.642.671-.879,1.154-1.063,0,0,.563-.21.576-.21.833-.321,1.313-1.346,1.313-2.888a14.421,14.421,0,0,0-.531-3.446l-1.6-5.977c-2.819.822-20.345,5.959-20.345,5.959-4.639,1.366-8.654,2.553-10.73,3.45-1.253.5-1.929.968-1.929,1.931m16.855,131.766a8.29,8.29,0,1,1,8.307-8.294,8.289,8.289,0,0,1-8.307,8.294M542.688,276.6c-.193.007-.952,0-1.067-1.338a5.452,5.452,0,0,0-.786-2.082,7.786,7.786,0,0,0-2.715-2.465,167.028,167.028,0,0,0-17.5-8.411,12.754,12.754,0,0,0-5.213-.312s-4.267.416-4.341.438l-5.153.609c-1.641.281-2.308.877-2.348,2.051l.013,2.573-.177,1.092-.52.266-.618-.184a1.983,1.983,0,0,1-.487-1.282l-.427-5.578-.17-2.447-.29-2.673-.467-3.9c-.055-.474-.157-1.586.8-1.676l.545.164.405,1.039.4,1.734c.244.937,1.566,1.063,2.607,1.047l5.24-.29,4.318-.43a10.739,10.739,0,0,0,5.24-1.67c.748-.41,11.6-8.491,14.2-10.639a12.733,12.733,0,0,0,3.413-3.807,5.623,5.623,0,0,0,.432-2.06c-.122-1.107.571-1.26.768-1.307l.563.2.487,1.154.148,2.409.306,4.239.226,1.758.412,3.836-.2,1.012-.556.3c-.611.053-.8-.518-1.016-1.158l-.133-.259a.464.464,0,0,0-.536-.352,5.964,5.964,0,0,0-1.566.722c-1.2.715-9.469,6.61-13.042,9.1,0,0-.638.467-1.167.846,1.3.534,3.953,1.7,6.772,2.961,3.373,1.47,6.823,3.005,7.658,3.284a6.772,6.772,0,0,0,2.629.478.859.859,0,0,0,.83-.873c.075-.56.166-1.278.811-1.351.888-.113,1,.846,1.021,1.214l.3,4.938.7,5.634c.077.908-.177,1.4-.746,1.451" fill="#153972"/>
        <path id="패스_11446" data-name="패스 11446" d="M84.995,109.635a3.374,3.374,0,1,1-3.375-3.373,3.379,3.379,0,0,1,3.375,3.373" transform="translate(95.035 129.061)" fill="#153972"/>
        <path id="패스_11447" data-name="패스 11447" d="M143.263,82.012a30.183,30.183,0,1,0,30.171,30.173,30.185,30.185,0,0,0-30.171-30.173" transform="translate(137.324 99.608)" fill="#153972"/>
        <path id="패스_11448" data-name="패스 11448" d="M207.762,49.333C145.1,95.241,59.1,92.625,59.1,92.625v96.251a239.851,239.851,0,0,0,4.407,49.057,832.648,832.648,0,0,1,288.481.006,240.307,240.307,0,0,0,4.382-49.063V92.625s-85.967,2.615-148.612-43.292M129.767,181.447a.628.628,0,0,1-.627.627H111.1a6.995,6.995,0,0,1-12.455,0H80.606a.628.628,0,0,1-.627-.627V150.906a.628.628,0,0,1,.627-.627h3.308v28.216H97.853a6.985,6.985,0,0,1,.819-2.963H87.711v-30.16H99.877c2.556,0,3.169,2.759,3.169,2.759v23.913a6.363,6.363,0,0,1,3.579-.022V148.131s.613-2.759,3.169-2.759h12.164v30.16H111.072a6.959,6.959,0,0,1,.822,2.963h13.938V150.279h3.309a.628.628,0,0,1,.627.627Zm79.079,29.341A58.915,58.915,0,1,1,267.9,151.834a59.019,59.019,0,0,1-59.055,58.954M313.04,198.023l-.921,1.125h-3.681l-.919-.715-3.986-25.662h13.5Zm11.141-35.783-2.272,7.567H298.758l-2.689-7.567h8.165a8.525,8.525,0,0,0-.179-2.412c-2.058-6.555-14.262-7.877-9.523-16.707a20.1,20.1,0,0,1,5.421-6.236c-.582.454.485,4.358.715,4.989a8.278,8.278,0,0,0,3.271,4.008c3.355,2.292,9.981,5.707,7.941,10.694-.842,2.044-2.316,3.776-3.455,5.663h2.859c.56-.757,1.3-1.77,1.486-2.075,1.278-2.119,3.021-4.777,2.529-7.383-.485-2.589-2.972-4.028-4.881-5.53-3.413-2.675-8.3-5.421-8.415-10.346-.122-5.058,4.983-9.456,8.823-12.012.614-.41,2.556-1.433,2.556-1.433s-1.942,5.009-1.838,6.44c.485,6.885,9.552,10.541,13.316,15.513,3.481,4.6-2.128,11.226-5.342,14.443-.708.709-1.546,1.681-2.132,2.383Z" transform="translate(71.784 59.918)" fill="#153972"/>
      </g>
    </g>
  </g>
</svg>
